<?xml version="1.0" encoding="utf-8"?>
<!-- Svg Vector Icons : http://www.onlinewebfonts.com/icon -->
<!DOCTYPE svg PUBLIC "-//W3C//DTD SVG 1.1//EN" "http://www.w3.org/Graphics/SVG/1.1/DTD/svg11.dtd">
<svg version="1.1" xmlns="http://www.w3.org/2000/svg" xmlns:xlink="http://www.w3.org/1999/xlink" x="0px" y="0px" viewBox="0 0 1000 1000" enable-background="new 0 0 1000 1000" xml:space="preserve">
<path d="M179.2,519.2c1.3,2.9,1.5,6.2,0.9,9.9c-0.9,4.5-2.8,7.9-5.8,10.7c-3.1,2.6-6.4,4.2-10.2,4.5c-3.7,0.3-8.3,0-13.6-1l-9.2-1.8c-3.1-0.5-4.9-1.1-5.6-1.5c-0.6-0.4-1-1.1-1.2-2c-0.1-0.6,0.2-3,0.8-6.8l5.1-27.3l16.4,3c7.2,1.3,12.4,2.9,15.6,4.9C175.7,513.8,177.9,516.3,179.2,519.2z M180.1,461.6c-2.9-1.6-8.4-3.1-16.5-4.6l-13.8-2.6l-5.8,30.8l13.9,2.6c7.2,1.3,12.7,1.7,16.4,1.1c3.7-0.5,6.6-1.8,8.8-4c2.1-2.1,3.6-4.7,4.2-8c0.6-3.3,0.3-6.3-0.9-9C185.1,465.4,183.1,463.3,180.1,461.6z M302.9,500c0,80.9-65.6,146.4-146.5,146.4C75.6,646.4,10,580.9,10,500c0-80.9,65.6-146.4,146.4-146.4C237.3,353.6,302.9,419.1,302.9,500z M216.7,461.3c-2.5-5.4-6.7-10-12.4-13.8c-2.2-1.5-5-2.8-8.1-4l4.2-22.2l-21.4-4l-3.9,20.8l-13.7-2.6l3.9-20.8l-21.4-4l-3.9,20.9l-32.7-6.2l-3.3,17.5l5,1c3.3,0.5,5.5,1.3,6.6,2.2c1.1,0.8,1.7,1.7,2,2.9c0.3,1.1,0.1,3.6-0.6,7.3l-13.2,70.4c-0.7,3.7-1.3,6-2,7c-0.7,0.9-1.6,1.6-3,1.9c-1.3,0.4-3.6,0.3-6.9-0.4l-5-0.9l-3.2,17.5l32.6,6.1l-3.9,20.8l21.4,4l3.9-20.8l12.2,2.3c0.5,0.1,1,0.1,1.6,0.3l-3.9,20.8l21.4,3.9l4.3-22.5c3.7,0,7-0.4,9.9-0.9c7.9-1.5,14.5-4.8,19.6-9.7c5.1-4.8,8.3-10.6,9.5-17.3c1-5.7,0.7-11-1.1-16c-1.8-5.1-4.8-9.3-8.8-12.7c-2.8-2.4-7-5-12.6-7.5c5.8-0.9,10.7-2.4,14.6-4.6c3.9-2.2,7.1-5.1,9.6-8.5c2.5-3.5,4.1-7.3,4.9-11.4C219.8,472.4,219.2,466.7,216.7,461.3z M361.2,364l-22.1,110.3c-1.3,6.5-2.4,13.2-2.4,19.8c0,19.3,12.9,30.5,38.8,30.5c49,0,72.2-40.5,72.2-75.9c0-19.4-10.2-37.9-33-37.9c-13.3,0-25.6,5.8-33.6,15.4h-0.5l12.9-62.1L361.2,364L361.2,364z M373,467.4c3.8-19,15.2-30.7,26.8-30.7c9.8,0,14.2,8.2,14.2,18.7c0,19.1-13.3,45-31.8,45c-7.4,0-12-4.2-12.3-12c-0.2-4.6,0.7-8.4,1.1-12L373,467.4z M488.5,522.2l20.7-109h-32l-20.7,109H488.5z M497.2,399.7c10.3,0,18.9-6.7,18.9-18c0-9.6-6.7-15.8-16-15.8c-9.8,0-18.3,7.3-18.5,18.2C481.6,393.7,488.3,399.7,497.2,399.7z M544.5,390.4l-4.5,22.9h-14l-4.5,24.3h13.8l-8.6,43.5c-1.5,8.2-2.2,14.3-2.2,20.3c0,13.6,9.2,23.4,28.3,23.4c6.9,0,14.9-0.9,19-2.5l3.8-25.1c-2.9,0.4-6,0.4-8.9,0.4c-6.9,0-9.2-3.7-9.2-9.1c0-3.7,0.9-9.3,1.8-13.8l7.4-36.9h23.1l4.6-24.3h-23.1l5.8-30.5L544.5,390.4z M672.2,494.3c-5.6,2.3-12.3,4.5-21.6,4.5c-12,0-21.4-7.6-21.4-22.5c0-20.5,14-39.9,36.9-39.9c6.4,0,10.9,1.1,14.8,2.6l7.7-24.4c-4.6-2-12.7-3.8-22.1-3.8c-41.5,0-71.1,30.3-71.1,69.1c0,28.2,18.9,44.6,45.9,44.6c12.9,0,24.1-2.3,31-5.5L672.2,494.3z M755.5,410.8c-38.8,0-65,31-65,68.8c0,27,18.5,45,46.1,45c37.9,0,65.1-29.2,65.1-69.1C801.6,430.8,784.7,410.8,755.5,410.8z M751.3,435.1c12.9,0,17.2,10.7,17.2,20.7c0,18.7-9.8,44.4-27.4,44.4c-11.2,0-17.4-8.5-17.4-21.2C723.5,462.1,732.8,435.1,751.3,435.1z M843.4,522.2l20.7-109H832l-20.7,109H843.4z M852.1,399.7c10.2,0,19-6.7,19-18c0-9.6-6.7-15.8-16-15.8c-9.7,0-18.3,7.3-18.5,18.2C836.5,393.7,843.2,399.7,852.1,399.7z M902.4,522.2l9.2-48.3c4.5-24.1,16.7-37.2,27.2-37.2c8,0,10.8,5.4,10.8,12.9c0,4-0.5,8.4-1.1,12.3l-11.4,60.3h32.1l12-63.2c0.9-5.4,1.8-13.6,1.8-18.5c0-18.8-10-29.7-27.9-29.7c-14.5,0-28.1,6.3-38.4,20.5h-0.5l2.2-18H890c-1.4,9.7-3.2,21.6-5.8,35.4l-13.9,73.4L902.4,522.2L902.4,522.2L902.4,522.2z M377.4,614.8c-0.5-2.9-0.7-7.7-0.7-12.8V584c0-12.3-5.6-22.6-23-22.6c-9.5,0-16.7,2.5-20.3,4.6l3,10.5c3.4-2.2,9.1-3.9,14.4-3.9c8,0,9.5,3.9,9.5,6.7v0.8c-18.5-0.1-30.6,6.4-30.6,20c0,8.3,6.3,15.9,16.9,15.9c6.2,0,11.5-2.3,14.9-6.4h0.3l1,5.2L377.4,614.8L377.4,614.8z M360.8,595.8c0,1-0.1,1.9-0.3,2.7c-1.1,3.4-4.4,6-8.4,6c-3.6,0-6.4-2-6.4-6.2c0-6.4,6.6-8.4,15.2-8.2L360.8,595.8L360.8,595.8z M426.7,601.6c-2.5,1-5.4,1.5-9.3,1.5c-7.9,0-14.3-5-14.3-14.7c-0.1-8.5,5.5-14.6,14-14.6c4.3,0,7.2,0.7,9.1,1.6l2.6-12.1c-3.4-1.3-8.1-2-12.4-2c-19.5,0-29.9,12.5-29.9,27.8c0,16.5,10.8,26.7,27.7,26.7c6.2,0,11.6-1.1,14.5-2.4L426.7,601.6z M473.8,601.6c-2.5,1-5.4,1.5-9.3,1.5c-7.9,0-14.3-5-14.3-14.7c-0.1-8.5,5.4-14.6,14-14.6c4.3,0,7.2,0.7,9.1,1.6l2.6-12.1c-3.4-1.3-8.1-2-12.4-2c-19.5,0-29.9,12.5-29.9,27.8c0,16.5,10.8,26.7,27.7,26.7c6.2,0,11.7-1.1,14.5-2.4L473.8,601.6z M529.7,593.9c0.2-1.2,0.6-3.6,0.6-6.5c0-12.8-6.4-26-23.2-26c-18.2,0-26.4,14.6-26.4,27.9c0,16.4,10.1,26.6,27.9,26.6c7,0,13.6-1.1,18.9-3.3l-2.1-11c-4.4,1.4-8.9,2.1-14.4,2.1c-7.6,0-14.2-3.2-14.7-9.9H529.7L529.7,593.9z M496,582.8c0.4-4.4,3.2-10.6,10.1-10.6c7.5,0,9.2,6.6,9.2,10.6H496z M540,635.9h16.3v-26h0.2c2.4,3.4,7.3,6,13.6,6c11.6,0,23.7-8.9,23.7-28c0-16.7-10.3-26.6-21.7-26.6c-7.6,0-13.6,2.9-17.4,8.5h-0.2l-0.7-7.3h-14.1c0.2,4.7,0.5,10.7,0.5,17.5L540,635.9L540,635.9z M556.3,585.2c0-0.9,0.1-2,0.3-2.9c1.1-4.7,5.1-8.2,9.8-8.2c7.3,0,11,6.3,11,14.6c0,8.8-4.2,14.8-11.2,14.8c-4.7,0-8.5-3.3-9.5-7.7c-0.2-1-0.3-2.1-0.3-3.5V585.2L556.3,585.2z M606.2,551.3v11.4h-6.9v11.9h6.9v21.3c0,7.4,1.5,12.4,4.5,15.5c2.6,2.6,7,4.5,12.2,4.5c4.6,0,8.4-0.5,10.5-1.4l-0.1-12.3c-1.2,0.2-2.8,0.4-4.8,0.4c-4.9,0-6.4-2.9-6.4-9.2v-18.9h11.7v-11.9h-11.7v-14.9L606.2,551.3z M688.8,593.9c0.2-1.2,0.5-3.6,0.5-6.5c0-12.8-6.4-26-23.3-26c-18.1,0-26.4,14.6-26.4,27.9c0,16.4,10.2,26.6,27.9,26.6c7,0,13.6-1.1,18.9-3.3l-2.1-11c-4.4,1.4-8.8,2.1-14.4,2.1c-7.6,0-14.1-3.2-14.8-9.9H688.8L688.8,593.9z M655,582.8c0.5-4.4,3.2-10.6,10.1-10.6c7.5,0,9.2,6.6,9.2,10.6H655z M733.5,539v28.3h-0.2c-2.4-3.6-7.4-5.9-13.8-5.9c-12.6,0-23.5,10.1-23.4,27.8c0,16.2,10,26.8,22.4,26.8c6.7,0,13-3,16.4-8.8h0.2l0.7,7.7h14.5c-0.3-3.5-0.5-9.7-0.5-15.6V539H733.5L733.5,539z M733.5,591.5c0,1.4-0.1,2.6-0.4,3.7c-1,4.6-4.7,7.8-9.4,7.8c-6.7,0-11.1-5.6-11.1-14.4c0-8.2,3.8-14.9,11.3-14.9c5,0,8.5,3.6,9.5,8c0.1,0.8,0.2,2,0.2,2.9V591.5z M784.4,614.8h16.3v-31c0-1.2,0.1-2.5,0.5-3.6c1.2-2.8,3.8-5.7,8.1-5.7c6.1,0,8.4,4.6,8.4,11.6v28.7H834v-30.5c0-15.7-7.9-22.8-18.3-22.8c-3,0-6.1,0.7-8.4,2c-2.6,1.4-4.7,3.1-6.4,5.3h-0.2V539h-16.3L784.4,614.8L784.4,614.8z M893.2,593.9c0.2-1.2,0.5-3.6,0.5-6.5c0-12.8-6.4-26-23.2-26c-18.2,0-26.4,14.6-26.4,27.9c0,16.4,10.1,26.6,27.9,26.6c7.1,0,13.6-1.1,18.9-3.3l-2.2-11c-4.4,1.4-8.9,2.1-14.4,2.1c-7.6,0-14.2-3.2-14.8-9.9H893.2L893.2,593.9z M859.5,582.8c0.4-4.4,3.2-10.6,10-10.6c7.5,0,9.2,6.6,9.2,10.6H859.5z M903.5,614.8h16.2v-26.5c0-1.3,0.1-2.6,0.4-3.6c1.1-5.1,5.1-8.2,11.1-8.2c1.8,0,3.2,0.2,4.4,0.4v-15.2c-1.2-0.2-1.9-0.2-3.5-0.2c-5,0-11.4,3.2-14,10.8h-0.5l-0.5-9.6h-13.9c0.2,4.5,0.4,9.5,0.4,17.2V614.8L903.5,614.8z M989.4,593.9c0.2-1.2,0.6-3.6,0.6-6.5c0-12.8-6.4-26-23.3-26c-18.1,0-26.4,14.6-26.4,27.9c0,16.4,10.2,26.6,27.9,26.6c7.1,0,13.6-1.1,19-3.3l-2.1-11c-4.4,1.4-8.8,2.1-14.4,2.1c-7.6,0-14.2-3.2-14.8-9.9H989.4L989.4,593.9z M955.7,582.8c0.5-4.4,3.2-10.6,10.1-10.6c7.5,0,9.2,6.6,9.2,10.6H955.7z"/>
</svg>